<svg xmlns="http://www.w3.org/2000/svg" viewBox="0 0 12 12" fill="currentColor"><path transform="matrix(.70710677 -.70710677 .70710677 .70710677 .22551045 6.0000205)" d="M6.88658047.21958841C7.17948684-.0731418 7.65428847-.07325046 7.94712734.21958841 8.23980334.51244046 8.23980334.98728323 7.94712734 1.28013527L1.28013527 7.94712734C.98728323 8.23980334.51244046 8.23980334.21958841 7.94712734-.07325046 7.65428847-.0731418 7.17948684.21958841 6.88658047L6.88658047.21958841Z"/><path transform="matrix(.70710677 -.70710677 .70710677 .70710677 .22539516 6.0000205)" d="M.21966992.21966992C.51256315-.07322331.98732358-.07322331 1.28021681.21966992L7.94720888 6.88666201C8.23977619 7.17958149 8.23999345 7.65442431 7.94720888 7.94720888 7.65442431 8.23999345 7.17958149 8.23977619 6.88666201 7.94720888L.21966992 1.28021681C-.07322331.98732358-.07322331.51256315.21966992.21966992Z"/></svg>